<svg width="19" height="18" viewBox="0 0 19 18" fill="none" xmlns="http://www.w3.org/2000/svg">
<path d="M6.25808 8.87375L13.1021 2.02976C13.2112 1.96214 13.5168 1.79914 13.9217 1.78124C14.3149 1.76386 14.8882 1.87766 15.5527 2.54219C16.2172 3.20671 16.331 3.77997 16.3136 4.17319C16.2957 4.57812 16.1327 4.88372 16.0651 4.99282L9.22113 11.8368C9.19052 11.8674 9.15247 11.8896 9.11073 11.9011L5.50961 12.8927C5.32259 12.9442 5.15072 12.7723 5.20221 12.5853L6.19383 8.98415C6.20532 8.94241 6.22746 8.90437 6.25808 8.87375Z" stroke="#5D5D5D" stroke-width="1.5"/>
<path d="M7.5 2H5C2.79086 2 1 3.79086 1 6V13C1 15.2091 2.79086 17 5 17H12C14.2091 17 16 15.2091 16 13V10.5714" stroke="#5D5D5D" stroke-width="1.5" stroke-linecap="round" stroke-linejoin="round"/>
</svg>
